<svg id="visual" viewBox="0 100 900 2000" width="900" height="2000" xmlns="http://www.w3.org/2000/svg"
    xmlns:xlink="http://www.w3.org/1999/xlink" version="1.1">
    <path
        d="M0 146L21.5 141C43 136 86 126 128.8 129C171.7 132 214.3 148 257.2 150C300 152 343 140 385.8 134.2C428.7 128.3 471.3 128.7 514.2 135.3C557 142 600 155 642.8 157.2C685.7 159.3 728.3 150.7 771.2 144.7C814 138.7 857 135.3 878.5 133.7L900 132L900 301L878.5 301C857 301 814 301 771.2 301C728.3 301 685.7 301 642.8 301C600 301 557 301 514.2 301C471.3 301 428.7 301 385.8 301C343 301 300 301 257.2 301C214.3 301 171.7 301 128.8 301C86 301 43 301 21.5 301L0 301Z"
        fill="#0066FF" stroke-linecap="round" stroke-linejoin="miter"></path>
    <rect x='0' y='300' width="900" height="1600" fill="#0066FF" />
</svg>