<svg id="visual" viewBox="0 0 900 600" width="900" height="600" xmlns="http://www.w3.org/2000/svg"
    xmlns:xlink="http://www.w3.org/1999/xlink" version="1.1">
    <rect x="0" y="0" width="900" height="600" fill="#f3ae2d00"></rect>
    <path
        d="M0 172L18.8 172.2C37.7 172.3 75.3 172.7 112.8 162C150.3 151.3 187.7 129.7 225.2 130.5C262.7 131.3 300.3 154.7 337.8 167.7C375.3 180.7 412.7 183.3 450.2 172.3C487.7 161.3 525.3 136.7 562.8 137.5C600.3 138.3 637.7 164.7 675.2 177.5C712.7 190.3 750.3 189.7 787.8 189.7C825.3 189.7 862.7 190.3 881.3 190.7L900 191L900 0L881.3 0C862.7 0 825.3 0 787.8 0C750.3 0 712.7 0 675.2 0C637.7 0 600.3 0 562.8 0C525.3 0 487.7 0 450.2 0C412.7 0 375.3 0 337.8 0C300.3 0 262.7 0 225.2 0C187.7 0 150.3 0 112.8 0C75.3 0 37.7 0 18.8 0L0 0Z"
        fill="#f5f5f5" stroke-linecap="round" stroke-linejoin="miter"></path>
</svg>