<svg id="visual" viewBox="0 0 900 600" width="900" height="600" xmlns="http://www.w3.org/2000/svg" xmlns:xlink="http://www.w3.org/1999/xlink" version="1.1"><rect x="0" y="0" width="900" height="600" fill="#002233"></rect><path d="M0 477L21.5 481.3C43 485.7 86 494.3 128.8 501.3C171.7 508.3 214.3 513.7 257.2 497.7C300 481.7 343 444.3 385.8 430.2C428.7 416 471.3 425 514.2 422.7C557 420.3 600 406.7 642.8 400.7C685.7 394.7 728.3 396.3 771.2 402.2C814 408 857 418 878.5 423L900 428L900 601L878.5 601C857 601 814 601 771.2 601C728.3 601 685.7 601 642.8 601C600 601 557 601 514.2 601C471.3 601 428.7 601 385.8 601C343 601 300 601 257.2 601C214.3 601 171.7 601 128.8 601C86 601 43 601 21.5 601L0 601Z" fill="#0066FF" stroke-linecap="round" stroke-linejoin="miter"></path></svg>