<svg id="visual" viewBox="0 330 900 600" width="900" height="600" xmlns="http://www.w3.org/2000/svg"
    xmlns:xlink="http://www.w3.org/1999/xlink" version="1.1">
    <rect x="0" y="0" width="900" height="600" fill="#00223300"></rect>
    <path
        d="M0 400L25 387.2C50 374.3 100 348.7 150 364.5C200 380.3 250 437.7 300 439.3C350 441 400 387 450 374.7C500 362.3 550 391.7 600 399.3C650 407 700 393 750 389.3C800 385.7 850 392.3 875 395.7L900 399L900 601L875 601C850 601 800 601 750 601C700 601 650 601 600 601C550 601 500 601 450 601C400 601 350 601 300 601C250 601 200 601 150 601C100 601 50 601 25 601L0 601Z"
        fill="#0066FF" stroke-linecap="round" stroke-linejoin="miter"></path>
</svg>