<svg id="visual" viewBox="0 0 100 100" width="100" height="100" xmlns="http://www.w3.org/2000/svg"
    xmlns:xlink="http://www.w3.org/1999/xlink" version="1.1">
    <g transform="translate(50.052343750000006 49.947656249999994)">
        <path
            d="M17.7 -30.6C23 -27.5 27.5 -23 30.6 -17.7C33.7 -12.3 35.3 -6.2 35.3 0C35.3 6.2 33.7 12.3 30.6 17.7C27.5 23 23 27.5 17.7 30.6C12.3 33.7 6.2 35.3 0 35.4C-6.2 35.5 -12.5 34 -17.9 30.9C-23.3 27.9 -27.9 23.3 -30.9 17.9C-34 12.5 -35.5 6.3 -35.4 0C-35.3 -6.2 -33.7 -12.3 -30.6 -17.7C-27.5 -23 -23 -27.5 -17.7 -30.6C-12.3 -33.7 -6.2 -35.3 0 -35.3C6.2 -35.3 12.3 -33.7 17.7 -30.6"
            fill="none" stroke="#eda621" stroke-width="10"></path>
    </g>
</svg>